<svg width="576" height="576" viewBox="0 0 576 576" fill="none" xmlns="http://www.w3.org/2000/svg">
<circle cx="288" cy="288" r="288" fill="#161616"/>
<circle cx="288" cy="288" r="96" fill="#FF8863"/>
<circle cx="288" cy="288" r="9.95" fill="white" stroke="black" stroke-width="0.1"/>
<path d="M242.488 238.4C243.628 238.4 244.618 238.592 245.458 238.976C246.298 239.348 246.946 239.888 247.402 240.596C247.858 241.292 248.086 242.114 248.086 243.062C248.086 244.01 247.858 244.832 247.402 245.528C246.946 246.224 246.298 246.764 245.458 247.148C244.618 247.52 243.628 247.706 242.488 247.706H240.292V251H236.728V238.4H242.488ZM242.272 244.898C243.004 244.898 243.556 244.742 243.928 244.43C244.3 244.106 244.486 243.65 244.486 243.062C244.486 242.474 244.3 242.018 243.928 241.694C243.556 241.37 243.004 241.208 242.272 241.208H240.292V244.898H242.272ZM261.811 238.4V251H258.247V246.086H253.387V251H249.823V238.4H253.387V243.134H258.247V238.4H261.811ZM272.767 248.552H267.439L266.449 251H262.813L268.375 238.4H271.885L277.465 251H273.757L272.767 248.552ZM271.723 245.924L270.103 241.892L268.483 245.924H271.723ZM290.464 238.4V251H287.53L281.968 244.286V251H278.476V238.4H281.41L286.972 245.114V238.4H290.464ZM295.66 241.226H291.79V238.4H303.076V241.226H299.224V251H295.66V241.226ZM312.213 248.552H306.885L305.895 251H302.259L307.821 238.4H311.331L316.911 251H313.203L312.213 248.552ZM311.169 245.924L309.549 241.892L307.929 245.924H311.169ZM322.349 251.252C321.329 251.252 320.339 251.126 319.379 250.874C318.419 250.622 317.639 250.286 317.039 249.866L318.209 247.238C318.773 247.61 319.427 247.91 320.171 248.138C320.915 248.366 321.647 248.48 322.367 248.48C323.735 248.48 324.419 248.138 324.419 247.454C324.419 247.094 324.221 246.83 323.825 246.662C323.441 246.482 322.817 246.296 321.953 246.104C321.005 245.9 320.213 245.684 319.577 245.456C318.941 245.216 318.395 244.838 317.939 244.322C317.483 243.806 317.255 243.11 317.255 242.234C317.255 241.466 317.465 240.776 317.885 240.164C318.305 239.54 318.929 239.048 319.757 238.688C320.597 238.328 321.623 238.148 322.835 238.148C323.663 238.148 324.479 238.244 325.283 238.436C326.087 238.616 326.795 238.886 327.407 239.246L326.309 241.892C325.109 241.244 323.945 240.92 322.817 240.92C322.109 240.92 321.593 241.028 321.269 241.244C320.945 241.448 320.783 241.718 320.783 242.054C320.783 242.39 320.975 242.642 321.359 242.81C321.743 242.978 322.361 243.152 323.213 243.332C324.173 243.536 324.965 243.758 325.589 243.998C326.225 244.226 326.771 244.598 327.227 245.114C327.695 245.618 327.929 246.308 327.929 247.184C327.929 247.94 327.719 248.624 327.299 249.236C326.879 249.848 326.249 250.34 325.409 250.712C324.569 251.072 323.549 251.252 322.349 251.252ZM336.062 246.482V251H332.498V246.428L327.692 238.4H331.454L334.442 243.404L337.43 238.4H340.886L336.062 246.482ZM282.159 260.4V273H280.233L273.285 264.468V273H270.963V260.4H272.889L279.837 268.932V260.4H282.159ZM294.985 271.038V273H285.535V260.4H294.733V262.362H287.875V265.638H293.959V267.564H287.875V271.038H294.985ZM300.149 262.38H295.973V260.4H306.665V262.38H302.489V273H300.149V262.38Z" fill="black"/>
</svg>
